#!OML:ASF H:\ManfredETheater\Project 1\Capture day 1\Session 1\subject.ASF
:FULLY-SPECIFIED
:DEGREES
174
root -1.97948 18.4266 26.3984 10.17 7.35103 8.38631
lowerback 2.81508 -3.94194 -9.3654
upperback -3.95005 -5.77362 0.361329
thorax -4.77674 -2.50541 5.95847
lowerneck -16.7956 -0.357522 -1.08326
upperneck 21.5433 0.647481 -3.48944
head 9.6073 -0.194118 -0.946927
rclavicle -1.85864e-014 -1.51076e-014
rhumerus -86.2417 3.01695 -73.1521
rradius 89.5526
rwrist -7.12099
rhand -17.6215 9.90636
rfingers 7.12502
rthumb 8.63562 -19.897
lclavicle -1.85864e-014 -1.51076e-014
lhumerus -51.6572 -22.7377 93.7199
lradius 122.664
lwrist 8.12165
lhand -19.0856 -17.9213
lfingers 7.12502
lthumb 7.22251 11.9355
rfemur -33.9729 -7.0197 17.7951
rtibia 33.0503
rfoot 9.62469 -9.5836
rtoes -19.7925
lfemur 3.33584 -5.69069 -22.6227
ltibia 67.686
lfoot 24.44 -13.732
ltoes 13.7971
175
root -2.00372 18.2287 26.8927 9.85882 7.18993 7.83291
lowerback 2.96892 -3.66671 -8.88977
upperback -3.98959 -5.38718 0.608413
thorax -4.98474 -2.3145 5.9565
lowerneck -16.6182 -0.49851 -1.25874
upperneck 21.6093 0.530535 -3.62652
head 9.59702 -0.27781 -0.980254
rclavicle 4.70374e-014 4.37326e-015
rhumerus -85.0483 2.36668 -72.7873
rradius 89.7707
rwrist -7.2436
rhand -17.753 9.87762
rfingers 7.12502
rthumb 8.5087 -19.931
lclavicle 4.70374e-014 4.37326e-015
lhumerus -53.1777 -23.1717 94.0801
lradius 120.642
lwrist 8.02024
lhand -19.3286 -18.0614
lfingers 7.12502
lthumb 6.98798 11.8033
rfemur -31.9589 -7.07505 18.9612
rtibia 33.6937
rfoot 5.79175 -9.02451
rtoes -19.1743
lfemur 1.51726 -4.91581 -21.4905
ltibia 72.2584
lfoot 21.8015 -11.8984
ltoes 13.1617
176
root -2.02684 18.0285 27.3784 9.52446 6.90079 7.13989
lowerback 3.25456 -3.33122 -8.28709
upperback -4.03017 -4.92037 0.891847
thorax -5.28587 -2.08386 5.92448
lowerneck -16.4434 -0.635093 -1.44134
upperneck 21.6304 0.419582 -3.76412
head 9.5717 -0.358607 -1.01112
rclavicle 5.60573e-014 1.66979e-014
rhumerus -83.6447 1.70617 -72.5168
rradius 89.8919
rwrist -7.46988
rhand -17.9495 9.80913
rfingers 7.12502
rthumb 8.31905 -20.0071
lclavicle 5.60573e-014 1.66979e-014
lhumerus -54.6067 -23.5022 94.462
lradius 118.543
lwrist 7.88411
lhand -19.603 -18.2084
lfingers 7.12502
lthumb 6.72311 11.6648
rfemur -29.9132 -6.86905 20.1929
rtibia 34.3311
rfoot 1.46235 -8.89207
rtoes -18.2267
lfemur -0.45097 -4.00187 -20.2051
ltibia 76.795
lfoot 19.0834 -10.5155
ltoes 12.5781
177
root -2.04774 17.8303 27.8554 9.17279 6.48076 6.186
lowerback 3.65737 -2.93621 -7.4125
upperback -4.07736 -4.35677 1.23756
thorax -5.6846 -1.81191 5.80168
lowerneck -16.251 -0.762796 -1.62324
upperneck 21.609 0.317502 -3.90036
head 9.5284 -0.434042 -1.03963
rclavicle -5.0218e-014 2.3059e-014
rhumerus -82.0355 1.04072 -72.356
rradius 89.9162
rwrist -7.70638
rhand -18.1934 9.66915
rfingers 7.12502
rthumb 8.0837 -20.1562
lclavicle -5.0218e-014 2.3059e-014
lhumerus -55.9571 -23.6863 94.8691
lradius 116.369
lwrist 7.75624
lhand -19.8737 -18.3513
lfingers 7.12502
lthumb 6.46174 11.5301
rfemur -27.7627 -6.35538 21.624
rtibia 34.6794
rfoot -2.84271 -9.28673
rtoes -16.9538
lfemur -2.57564 -2.93188 -18.6287
ltibia 81.1822
lfoot 16.5606 -9.71021
ltoes 12.4461
178
root -2.06636 17.637 28.3236 8.85211 5.9341 4.93981
lowerback 4.13534 -2.50061 -6.23051
upperback -4.12634 -3.70601 1.65301
thorax -6.14485 -1.50931 5.56658
lowerneck -16.0933 -0.871086 -1.78453
upperneck 21.5584 0.235005 -4.03209
head 9.48164 -0.497804 -1.06712
rclavicle 2.58917e-014 -1.90833e-014
rhumerus -80.1677 0.38045 -72.3308
rradius 89.8113
rwrist -7.88211
rhand -18.4534 9.47459
rfingers 7.12502
rthumb 7.83278 -20.3603
lclavicle 2.58917e-014 -1.90833e-014
lhumerus -57.1916 -23.6675 95.2553
lradius 114.123
lwrist 7.70085
lhand -20.1057 -18.4742
lfingers 7.12502
lthumb 6.23776 11.414
rfemur -25.6952 -5.55977 23.313
rtibia 34.9688
rfoot -6.8953 -10.1744
rtoes -15.5894
lfemur -4.9262 -1.7168 -16.7241
ltibia 85.455
lfoot 14.2259 -9.48523
ltoes 12.5732
179
root -2.08851 17.4993 28.8018 8.62537 5.27961 3.47662
lowerback 4.63849 -2.04611 -4.8159
upperback -4.17729 -2.9914 2.11949
thorax -6.62397 -1.18924 5.23496
lowerneck -16.0023 -0.954 -1.92576
upperneck 21.4865 0.179765 -4.14863
head 9.44017 -0.545623 -1.08929
rclavicle -7.10655e-015 -1.90833e-014
rhumerus -78.0001 -0.254667 -72.4612
rradius 89.5562
rwrist -7.96534
rhand -18.698 9.21782
rfingers 7.12502
rthumb 7.59661 -20.6258
lclavicle -7.10655e-015 -1.90833e-014
lhumerus -58.2829 -23.4082 95.5894
lradius 111.796
lwrist 7.74741
lhand -20.3071 -18.5629
lfingers 7.12502
lthumb 6.04337 11.3309
rfemur -23.6135 -4.56599 25.1918
rtibia 35.1075
rfoot -10.3161 -11.3497
rtoes -13.9821
lfemur -7.42439 -0.387724 -14.5905
ltibia 89.3121
lfoot 12.1837 -9.75407
ltoes 12.7618
180
root -2.1035 17.3208 29.2503 8.51861 4.55512 1.86929
lowerback 5.14172 -1.59557 -3.25049
upperback -4.21279 -2.24446 2.62043
thorax -7.07574 -0.867548 4.83465
lowerneck -16.0275 -1.00432 -2.04212
upperneck 21.4022 0.163946 -4.25257
head 9.41649 -0.572482 -1.10697
rclavicle 1.72943e-014 6.36111e-015
rhumerus -75.4755 -0.821595 -72.7662
rradius 89.1286
rwrist -7.95551
rhand -18.9103 8.88561
rfingers 7.12502
rthumb 7.3917 -20.9653
lclavicle 1.72943e-014 6.36111e-015
lhumerus -59.1877 -22.8673 95.8221
lradius 109.384
lwrist 7.90574
lhand -20.5194 -18.6228
lfingers 7.12502
lthumb 5.83832 11.2767
rfemur -21.939 -3.4695 27.1944
rtibia 35.3853
rfoot -13.0272 -12.6151
rtoes -13.0991
lfemur -10.3701 1.01406 -12.3268
ltibia 93.2167
lfoot 10.1701 -10.3566
ltoes 12.9243
181
root -2.11684 17.1499 29.6885 8.52214 3.82266 0.245856
lowerback 5.62531 -1.17629 -1.66632
upperback -4.21431 -1.51441 3.1202
thorax -7.45749 -0.564267 4.40796
lowerneck -16.1635 -1.01949 -2.13154
upperneck 21.2942 0.189808 -4.3416
head 9.40559 -0.576716 -1.11934
rclavicle -1.56046e-014 1.03368e-014
rhumerus -72.5768 -1.274 -73.2548
rradius 88.5284
rwrist -7.8238
rhand -19.0911 8.44741
rfingers 7.12502
rthumb 7.21719 -21.4095
lclavicle -1.56046e-014 1.03368e-014
lhumerus -59.8978 -22.033 95.9126
lradius 106.888
lwrist 8.13905
lhand -20.764 -18.6726
lfingers 7.12502
lthumb 5.60217 11.2334
rfemur -20.4571 -2.46732 29.1903
rtibia 35.743
rfoot -15.2292 -13.8815
rtoes -13.2399
lfemur -13.6283 2.40756 -10.1205
ltibia 96.8645
lfoot 8.25007 -11.1323
ltoes 12.9289
182
root -2.12943 16.9874 30.1185 8.61677 3.12082 -1.251
lowerback 6.06968 -0.805046 -0.225591
upperback -4.16903 -0.845597 3.58468
thorax -7.73912 -0.292422 4.01883
lowerneck -16.4016 -0.994067 -2.18424
upperneck 21.1562 0.265031 -4.42892
head 9.40368 -0.555312 -1.13142
rclavicle -5.06901e-015 -1.98785e-014
rhumerus -69.3338 -1.56227 -73.9308
rradius 87.7824
rwrist -7.58624
rhand -19.2909 7.95454
rfingers 7.12502
rthumb 7.02436 -21.9089
lclavicle -5.06901e-015 -1.98785e-014
lhumerus -60.4242 -20.9146 95.8359
lradius 104.329
lwrist 8.38213
lhand -21.0972 -18.7439
lfingers 7.12502
lthumb 5.28051 11.1703
rfemur -19.2207 -1.66685 31.0159
rtibia 36.4187
rfoot -17.1576 -15.009
rtoes -14.1614
lfemur -17.1648 3.72078 -8.19331
ltibia 100.208
lfoot 6.34688 -11.912
ltoes 12.6925
